<?xml version="1.0" standalone="no"?>
<!DOCTYPE svg PUBLIC "-//W3C//DTD SVG 20010904//EN"
 "http://www.w3.org/TR/2001/REC-SVG-20010904/DTD/svg10.dtd">
<svg version="1.0" xmlns="http://www.w3.org/2000/svg"
 width="1012.000000pt" height="470.000000pt" viewBox="0 0 1012.000000 470.000000"
 preserveAspectRatio="xMidYMid meet">

<g transform="translate(0.000000,470.000000) scale(0.100000,-0.100000)"
fill="#000000" stroke="none">
<path d="M7884 4520 c-72 -22 -145 -133 -175 -265 -21 -92 -18 -479 4 -568 34
-138 103 -234 184 -256 49 -14 53 -14 53 4 0 8 16 19 38 24 91 25 159 128 186
282 10 54 15 163 17 300 1 225 -3 255 -51 349 -22 42 -74 96 -112 116 -37 19
-105 26 -144 14z m56 -55 c0 -8 9 -15 20 -15 73 0 149 -93 181 -220 21 -82 18
-434 -5 -519 -22 -86 -64 -161 -105 -188 -40 -27 -107 -31 -152 -7 -40 20 -85
93 -111 179 -11 39 -25 75 -30 82 -6 7 -8 106 -6 240 5 253 12 293 71 379 44
64 137 112 137 69z"/>
<path d="M7473 4223 c4 -157 7 -398 7 -535 0 -214 2 -248 15 -248 19 0 18 -36
15 541 -1 347 1 488 9 493 23 15 11 36 -21 36 l-31 0 6 -287z"/>
<path d="M7050 4439 c-63 -28 -108 -74 -141 -144 -25 -51 -29 -72 -29 -144 0
-138 43 -197 171 -236 114 -35 145 -49 180 -84 107 -106 61 -313 -77 -351
-109 -31 -211 40 -230 159 -7 41 -17 48 -43 32 -10 -6 -11 -20 -6 -52 15 -93
56 -153 127 -190 39 -20 114 -27 103 -9 -3 6 0 10 7 10 65 0 145 55 180 123
29 58 43 226 22 276 -32 76 -83 112 -226 155 -95 29 -142 64 -153 116 -4 16
-11 30 -16 30 -5 0 -9 21 -9 48 0 85 70 194 143 221 36 14 77 14 77 1 0 -5 9
-10 19 -10 51 0 120 -99 121 -172 0 -27 4 -38 15 -38 11 0 15 11 15 36 0 21 4
33 10 29 27 -17 -8 103 -45 150 -50 67 -129 83 -215 44z"/>
<path d="M8370 4383 c0 -52 -15 -637 -23 -870 -2 -69 0 -93 9 -93 19 0 23 52
35 454 9 319 18 431 33 415 2 -2 43 -112 91 -244 225 -621 279 -743 274 -622
-1 23 4 74 10 112 6 39 15 212 21 385 7 192 15 319 22 327 14 17 4 39 -21 46
-17 4 -21 1 -21 -21 -1 -83 -30 -745 -33 -748 -6 -6 -81 191 -219 571 -66 182
-125 333 -132 337 -6 4 -19 8 -28 8 -15 0 -18 -9 -18 -57z m84 -99 c3 -8 2
-12 -4 -9 -6 3 -10 10 -10 16 0 14 7 11 14 -7z"/>
<path d="M2280 4379 c-135 -17 -145 -21 -148 -57 -4 -35 19 -45 36 -16 11 20
65 30 201 40 74 5 102 4 97 -4 -4 -6 5 -12 22 -14 l29 -3 -80 -170 c-43 -93
-130 -284 -193 -423 -121 -268 -129 -302 -77 -302 15 0 23 5 21 14 -4 18 -21
16 175 14 142 -2 151 -3 72 -8 l-90 -6 103 -2 c81 -2 102 1 102 12 0 8 12 17
26 20 14 4 24 12 21 19 -3 9 -52 11 -199 8 -179 -3 -195 -2 -202 14 -7 19 60
176 239 560 57 121 105 232 109 246 3 15 15 29 26 32 11 3 20 12 20 21 0 14
-17 16 -122 15 -68 -1 -152 -5 -188 -10z"/>
<path d="M2700 4352 l0 -28 113 -17 c121 -18 267 -55 267 -67 0 -4 -37 -70
-82 -146 -114 -194 -318 -596 -318 -625 l0 -25 207 -13 c146 -9 209 -9 211 -2
2 6 12 11 22 11 10 0 20 6 23 14 7 16 -19 20 -236 37 -138 11 -157 14 -163 31
-6 21 121 273 252 498 43 74 89 157 103 183 13 27 30 51 38 54 32 12 9 33 -59
54 -97 29 -294 69 -340 69 -35 0 -38 -2 -38 -28z"/>
<path d="M1937 4303 c-17 -4 -18 -18 -12 -236 17 -576 20 -647 30 -650 18 -4
20 60 12 333 -4 151 -6 339 -4 418 2 78 1 141 -2 141 -3 -1 -14 -3 -24 -6z"/>
<path d="M6678 4303 c-23 -6 -23 -44 -3 -513 8 -190 15 -360 15 -377 0 -23 5
-33 15 -33 19 0 19 35 0 505 -9 232 -11 363 -5 369 12 12 13 57 3 55 -5 -1
-16 -3 -25 -6z"/>
<path d="M3230 4252 c0 -10 143 -418 185 -527 26 -68 26 -74 20 -212 -6 -123
-5 -143 7 -143 18 0 28 77 28 210 l0 88 95 143 c52 79 103 148 115 154 l21 11
-21 19 c-21 19 -22 19 -39 -4 -15 -20 -72 -109 -149 -235 -22 -36 -25 -38 -35
-20 -6 10 -48 127 -92 258 -71 208 -85 241 -108 253 -15 7 -27 10 -27 5z"/>
<path d="M1665 4187 c-181 -94 -325 -196 -325 -229 0 -24 8 -23 32 7 28 36
106 87 138 91 l27 3 6 -226 c4 -124 7 -281 7 -348 l0 -121 -62 -12 c-63 -12
-533 -58 -618 -60 -25 -1 -157 -13 -295 -27 -137 -13 -294 -28 -348 -33 -137
-12 -141 -17 -153 -170 -5 -64 -8 -204 -7 -310 l1 -192 32 -40 c17 -22 39 -40
48 -40 8 0 12 -3 9 -6 -4 -4 19 -19 51 -34 111 -52 146 -120 187 -358 14 -81
37 -201 50 -267 13 -66 29 -151 35 -190 6 -38 17 -92 25 -120 24 -87 54 -209
61 -240 3 -16 16 -64 29 -105 14 -41 38 -125 54 -187 25 -90 42 -130 94 -215
99 -162 175 -249 337 -388 19 -17 46 -33 60 -37 14 -3 48 -21 77 -39 29 -18
76 -45 104 -60 29 -14 59 -32 66 -40 8 -7 33 -18 56 -24 23 -6 83 -24 132 -40
132 -43 284 -78 413 -95 113 -15 533 -22 566 -9 9 3 16 14 16 23 1 14 2 14 14
-1 16 -22 52 -23 60 -3 3 8 10 15 15 15 6 0 7 -7 4 -17 -5 -11 -3 -14 6 -9 7
5 11 17 8 27 -7 25 9 24 23 -1 14 -26 36 -26 43 0 3 11 10 20 16 20 6 0 8 -6
5 -13 -3 -9 6 -13 28 -15 27 -1 30 0 16 9 -23 13 -24 33 -1 21 11 -7 21 -5 31
4 17 17 42 18 42 2 0 -7 5 -6 13 4 6 9 24 18 39 22 23 5 26 3 22 -17 -4 -21
-4 -21 6 2 6 14 16 21 24 18 8 -3 16 -2 18 3 2 5 12 11 23 13 11 1 25 5 30 9
6 3 26 9 45 13 45 10 161 56 177 72 7 6 21 9 30 7 10 -3 28 5 41 16 13 12 29
20 36 17 7 -3 32 8 56 24 24 16 49 29 57 29 7 0 13 5 13 10 0 6 5 10 10 10 9
0 180 124 203 147 4 4 19 19 32 33 14 14 41 39 61 55 19 17 41 36 49 43 7 6
18 12 23 12 6 0 19 16 31 35 11 19 25 35 31 35 5 0 10 7 10 15 0 9 5 21 10 28
6 7 24 28 41 47 17 19 37 50 46 68 8 17 22 32 30 32 8 0 11 5 7 11 -4 7 2 19
13 28 25 21 62 81 98 156 15 33 32 63 37 66 5 3 9 8 8 10 -1 2 3 17 9 32 6 16
11 35 11 43 0 8 3 14 8 14 8 0 42 73 42 90 0 5 13 32 30 60 16 28 29 54 28 58
-1 4 4 21 11 37 7 17 14 36 15 43 1 8 8 17 15 22 8 4 10 13 7 19 -4 6 -3 11 1
11 5 0 15 17 22 38 7 20 20 55 30 77 10 22 29 74 42 115 13 41 43 109 66 150
23 41 51 94 63 118 18 37 138 167 181 197 43 30 98 53 102 42 3 -9 8 -9 18 1
18 17 34 15 19 -3 -11 -13 -2 -15 67 -15 44 0 83 -3 87 -7 4 -4 23 -8 42 -9
37 -3 150 -61 175 -91 26 -31 66 -133 104 -263 47 -159 125 -374 171 -469 19
-40 42 -94 51 -120 18 -55 156 -322 227 -441 70 -115 198 -273 325 -400 233
-232 463 -354 831 -440 184 -43 284 -52 635 -56 307 -4 338 -3 321 11 -11 8
-15 15 -9 15 6 0 18 3 27 6 11 4 16 1 16 -10 0 -14 9 -17 53 -14 43 2 51 6 49
21 -2 10 3 17 13 17 8 0 15 -7 15 -15 0 -8 9 -15 19 -15 14 0 18 5 14 20 -4
14 0 20 11 20 9 0 16 -7 16 -15 0 -22 17 -18 30 5 6 11 15 18 21 15 5 -4 7
-11 4 -16 -4 -5 0 -9 8 -9 10 0 13 7 10 20 -3 13 0 20 8 21 8 0 23 2 34 5 11
2 36 6 55 9 19 4 42 9 50 13 8 3 20 6 25 7 33 5 87 26 101 40 14 13 19 14 25
3 7 -11 11 -11 17 0 5 7 13 12 18 10 14 -4 84 33 84 44 0 5 9 7 20 3 13 -4 28
2 45 19 14 14 28 26 31 26 8 0 115 72 135 90 93 86 119 112 119 120 0 6 5 10
11 10 5 0 7 5 4 11 -4 6 2 13 13 16 20 5 82 74 82 91 0 4 9 18 20 30 14 14 16
22 8 22 -8 0 -4 8 8 18 24 20 64 87 64 108 0 8 7 17 15 20 8 4 15 16 15 28 0
11 7 30 15 40 8 11 15 28 15 38 0 10 7 21 15 24 10 4 13 13 9 26 -3 10 -2 24
3 31 11 15 35 85 40 115 1 12 5 32 7 45 2 12 11 40 20 61 9 21 18 54 20 72 3
18 7 38 10 43 4 5 8 28 10 51 2 22 9 47 16 55 6 8 9 18 6 23 -9 15 47 224 67
250 7 8 5 12 -7 12 -18 0 -21 15 -5 25 6 4 8 14 5 22 -3 8 -1 23 5 34 6 11 11
35 11 52 0 18 7 42 14 55 8 12 10 22 4 22 -10 0 -3 53 11 81 4 9 9 34 10 55 1
21 7 44 12 51 5 7 6 17 2 23 -3 5 -3 16 2 23 4 6 9 20 10 30 2 10 10 34 20 55
9 20 16 39 15 42 0 3 16 30 37 60 41 60 99 105 146 114 17 3 47 15 67 25 20
11 39 17 42 14 3 -4 6 -1 6 6 0 8 -7 11 -15 7 -9 -3 -15 0 -15 10 0 10 6 14
15 10 9 -3 15 0 15 9 0 8 -6 15 -14 15 -8 0 -17 4 -20 8 -9 15 6 51 23 55 12
4 13 5 1 6 -21 2 -26 111 -4 111 9 0 14 10 14 27 0 25 -1 26 -14 8 -13 -18
-13 -17 -13 9 0 15 6 30 13 33 8 3 14 12 14 20 0 9 -6 13 -15 9 -9 -3 -15 0
-15 9 0 8 7 15 15 15 23 0 18 18 -7 23 l-23 4 23 2 c12 0 22 7 22 15 0 20 -17
29 -24 14 -3 -7 -5 -4 -3 7 1 11 -2 26 -6 33 -6 8 -2 12 12 12 12 0 21 5 21
10 0 6 -9 10 -19 10 -14 0 -18 5 -14 20 3 11 12 20 19 20 16 0 17 10 5 42 -6
17 -24 28 -62 41 -77 23 -396 74 -622 97 -106 11 -208 24 -227 30 -19 5 -66
10 -104 10 -38 0 -123 11 -190 24 -255 51 -503 77 -708 75 -89 -1 -182 4 -222
11 -41 7 -99 10 -141 7 -40 -4 -107 -2 -151 2 -48 6 -96 6 -124 0 -25 -5 -157
-16 -295 -25 -137 -8 -279 -18 -315 -23 -103 -13 -372 -61 -407 -72 -18 -6
-67 -14 -110 -19 -43 -5 -179 -32 -302 -59 -124 -28 -268 -58 -320 -66 -53 -8
-148 -24 -211 -35 -248 -43 -408 -55 -578 -42 -86 6 -200 20 -252 30 -52 11
-185 36 -295 56 -223 42 -640 128 -725 151 -111 29 -347 66 -553 85 -64 6
-132 16 -150 22 -46 15 -744 19 -887 6 -63 -6 -149 -12 -190 -13 -41 -2 -111
-6 -155 -10 l-80 -8 -2 164 c-4 272 -15 513 -24 530 -15 29 28 67 137 120 59
29 104 57 104 65 0 8 -3 14 -7 14 -5 0 -62 -29 -128 -63z m5180 -947 c-3 -5
-12 -10 -18 -10 -7 0 -6 4 3 10 19 12 23 12 15 0z m-4768 -42 c-3 -8 -6 -5 -6
6 -1 11 2 17 5 13 3 -3 4 -12 1 -19z m-34 -1 c2 -7 -6 -18 -19 -24 -21 -10
-24 -9 -24 7 0 16 11 27 31 29 4 1 9 -5 12 -12z m392 3 c-3 -5 -12 -10 -18
-10 -7 0 -6 4 3 10 19 12 23 12 15 0z m225 1 c0 -6 -4 -13 -10 -16 -5 -3 -10
1 -10 9 0 9 5 16 10 16 6 0 10 -4 10 -9z m-470 -11 c0 -5 -4 -10 -10 -10 -5 0
-10 5 -10 10 0 6 5 10 10 10 6 0 10 -4 10 -10z m170 6 c0 -3 -4 -8 -10 -11 -5
-3 -10 -1 -10 4 0 6 5 11 10 11 6 0 10 -2 10 -4z m-460 -16 c0 -5 -2 -10 -4
-10 -3 0 -8 5 -11 10 -3 6 -1 10 4 10 6 0 11 -4 11 -10z m90 0 c0 -5 -7 -7
-15 -4 -8 4 -15 8 -15 10 0 2 7 4 15 4 8 0 15 -4 15 -10z m5360 0 c0 -5 -4
-10 -10 -10 -5 0 -10 5 -10 10 0 6 5 10 10 10 6 0 10 -4 10 -10z m117 -22 c-3
-7 -5 -2 -5 12 0 14 2 19 5 13 2 -7 2 -19 0 -25z m-5687 4 c0 -11 -16 -28 -41
-41 -55 -31 -171 -124 -250 -202 -214 -208 -355 -469 -413 -762 -46 -229 -44
-419 8 -647 15 -68 20 -107 14 -111 -6 -4 -29 2 -52 12 -38 16 -47 17 -93 5
l-51 -14 -62 40 c-67 42 -98 68 -81 68 6 0 11 5 11 10 0 6 -7 10 -15 10 -8 0
-15 -5 -15 -12 0 -6 -3 -8 -7 -4 -4 4 3 15 15 25 20 14 22 22 16 59 -4 27 -12
42 -21 42 -9 0 -13 6 -10 15 4 8 2 17 -4 21 -6 3 -3 11 8 20 14 11 15 13 3 14
-10 0 -15 11 -16 30 -1 27 6 35 29 31 4 0 7 11 7 25 0 19 -4 25 -15 20 -8 -3
-15 -1 -15 4 0 6 8 10 18 11 12 0 10 3 -8 11 -20 9 -21 12 -8 15 9 2 35 -5 57
-16 43 -22 76 -28 66 -11 -3 6 -14 10 -23 10 -10 0 -29 8 -42 17 -14 10 -32
16 -42 15 -21 -4 -32 14 -22 36 4 9 6 26 5 36 -2 13 2 17 13 13 12 -5 16 0 16
19 0 15 -5 24 -13 22 -7 -2 -12 2 -12 7 0 6 6 9 13 9 20 -3 14 12 -10 24 l-23
11 23 0 c27 1 30 21 2 21 -22 0 -23 3 -14 38 4 13 14 22 25 22 25 0 24 12 -1
28 -12 7 -19 16 -16 20 2 4 7 28 10 55 4 26 11 59 17 74 7 20 6 29 -3 35 -10
8 -10 11 0 15 6 2 12 13 12 24 0 10 5 19 11 19 5 0 7 4 4 10 -3 5 -1 29 6 52
6 24 12 52 14 63 1 11 12 37 24 58 11 21 21 42 21 47 0 13 18 51 38 81 9 14
28 45 42 67 14 23 31 42 38 42 6 0 12 6 12 13 0 7 14 27 30 45 17 18 30 36 30
40 0 7 92 69 151 103 16 9 35 22 43 28 8 6 18 11 22 10 5 -1 12 0 17 1 4 1 10
3 15 5 29 8 71 33 65 38 -3 4 7 4 24 1 18 -3 33 -1 37 5 4 6 17 11 29 11 12 0
34 6 48 14 15 7 39 12 55 10 16 -1 34 2 41 7 13 12 54 2 65 -15 5 -6 8 -2 8
12 0 15 6 22 20 22 11 0 20 -7 20 -15 0 -9 9 -15 25 -15 18 0 25 5 25 20 0 11
7 20 15 20 8 0 15 -8 15 -18z m80 3 c0 -8 -4 -15 -10 -15 -5 0 -10 7 -10 15 0
8 5 15 10 15 6 0 10 -7 10 -15z m5240 5 c13 -9 12 -12 -4 -25 -33 -25 -44 -17
-30 19 7 19 13 20 34 6z m134 4 c27 -10 18 -24 -14 -22 -30 2 -36 8 -23 21 8
9 17 9 37 1z m281 -4 c3 -5 -1 -10 -9 -10 -9 0 -16 5 -16 10 0 6 4 10 9 10 6
0 13 -4 16 -10z m170 0 c3 -5 1 -10 -4 -10 -6 0 -11 5 -11 10 0 6 2 10 4 10 3
0 8 -4 11 -10z m-5945 -10 c0 -5 -4 -10 -10 -10 -5 0 -10 5 -10 10 0 6 5 10
10 10 6 0 10 -4 10 -10z m5186 -37 c-11 -11 -19 6 -11 24 8 17 8 17 12 0 3
-10 2 -21 -1 -24z m44 21 c0 -8 -5 -12 -10 -9 -6 4 -8 11 -5 16 9 14 15 11 15
-7z m-83 -14 c-1 -20 -9 -25 -20 -13 -4 3 -2 12 4 20 15 18 18 17 16 -7z m118
10 c-3 -5 -10 -10 -16 -10 -5 0 -9 5 -9 10 0 6 7 10 16 10 8 0 12 -4 9 -10z
m-207 -22 c-3 -7 -11 -13 -18 -13 -7 0 -15 6 -17 13 -3 7 4 12 17 12 13 0 20
-5 18 -12z m42 -4 c0 -8 -4 -12 -10 -9 -5 3 -10 10 -10 16 0 5 5 9 10 9 6 0
10 -7 10 -16z m-82 -13 c3 -10 -2 -13 -22 -9 -14 3 -26 1 -26 -3 0 -5 -7 -9
-15 -9 -63 0 -333 -256 -437 -415 -59 -90 -128 -214 -134 -240 -1 -5 -14 -41
-29 -80 -108 -283 -120 -651 -31 -940 10 -32 12 -51 5 -54 -6 -2 -4 -8 5 -15
16 -13 79 -156 71 -164 -5 -6 -67 35 -109 72 -16 14 -35 26 -43 26 -15 0 -50
66 -40 76 3 4 22 -1 42 -10 19 -9 40 -14 46 -10 11 6 -37 29 -87 41 -16 3 -25
17 -33 46 -6 23 -26 98 -45 167 -18 69 -36 137 -39 151 l-7 26 78 -3 77 -3
-75 11 c-41 6 -78 16 -82 22 -4 6 -14 52 -24 103 -14 78 -19 93 -35 93 -23 0
-25 16 -4 28 9 4 16 21 16 38 1 47 -23 138 -40 152 -14 12 -14 13 1 8 14 -4
51 33 53 54 0 3 9 17 19 32 23 36 13 49 -35 46 -42 -2 -55 4 -43 23 4 7 9 30
11 51 2 22 8 48 14 59 5 11 7 24 4 29 -3 6 1 20 9 32 9 12 16 30 16 40 0 10 5
18 10 18 6 0 10 7 10 15 0 16 17 50 35 71 34 40 45 55 45 62 1 4 12 16 26 27
14 11 46 39 71 63 26 23 50 42 55 42 5 0 24 11 42 25 18 14 40 25 48 25 9 0
18 6 21 14 3 8 23 20 44 27 21 6 66 25 100 41 34 15 71 28 82 28 12 0 21 5 21
12 0 6 3 8 7 5 3 -4 12 -2 20 5 8 6 28 12 46 12 18 1 38 6 46 10 23 14 65 16
73 3 5 -8 8 -6 8 6 0 21 14 22 34 2 19 -19 32 -20 17 -1 -10 11 -8 16 5 24 26
14 96 10 102 -7z m1601 9 c20 0 21 -2 11 -15 -16 -19 -43 -19 -80 0 -41 21
-38 29 8 21 20 -3 48 -6 61 -6z m155 -30 c127 -28 251 -67 265 -84 6 -7 41
-29 76 -47 36 -18 65 -37 65 -41 0 -4 16 -14 35 -22 19 -8 40 -26 46 -40 7
-14 20 -28 31 -31 10 -4 23 -16 30 -28 6 -12 19 -28 30 -35 10 -7 18 -18 18
-23 0 -6 7 -17 15 -26 9 -9 13 -23 10 -34 -4 -13 -2 -19 9 -19 9 0 16 -6 16
-12 0 -7 3 -24 7 -37 7 -27 4 -26 -100 11 -54 19 -58 23 -52 47 4 21 -1 33
-29 60 -33 32 -38 34 -85 28 -27 -3 -72 -17 -100 -31 -28 -14 -57 -26 -65 -26
-8 0 -29 19 -45 43 -17 23 -57 71 -90 107 -33 36 -61 68 -61 73 0 4 -6 7 -13
7 -8 0 -22 10 -33 21 -10 12 -47 43 -81 69 l-62 47 27 21 c33 26 28 26 136 2z
m-7901 -36 c9 -4 17 -10 17 -15 0 -5 7 -9 15 -9 8 0 15 5 15 10 0 7 6 7 20 0
33 -18 25 -49 -17 -68 -58 -26 -362 -25 -418 2 -29 14 -35 20 -22 23 9 3 17 9
17 14 0 5 11 9 24 9 14 0 41 9 61 21 29 17 34 18 29 5 -3 -9 -1 -16 5 -16 6 0
11 5 11 11 0 11 30 9 75 -6 14 -5 16 -4 7 2 -8 7 -1 9 23 9 19 -1 35 -4 35 -8
0 -4 15 1 33 11 17 11 37 18 42 15 6 -2 18 -7 28 -10z m2948 -20 c142 -46 279
-103 279 -117 0 -6 3 -8 6 -4 6 6 84 -29 94 -43 3 -3 13 -9 22 -13 11 -4 15
-12 11 -22 -4 -11 -1 -15 9 -13 14 3 138 -99 138 -114 0 -4 14 -22 32 -40 44
-45 23 -47 -80 -8 -78 30 -81 32 -72 56 8 21 4 29 -28 59 -48 45 -70 44 -195
-9 -35 -15 -38 -15 -44 1 -4 10 -21 33 -38 52 -16 18 -29 38 -27 43 1 5 -1 7
-6 4 -5 -3 -34 22 -66 54 -31 33 -60 60 -64 60 -4 0 -14 8 -23 18 -8 9 -30 29
-49 44 -46 36 -32 35 101 -8z m6142 20 c9 -4 17 -10 17 -15 0 -5 7 -9 15 -9 8
0 15 5 15 10 0 7 6 7 20 0 33 -18 25 -49 -17 -68 -58 -26 -362 -25 -418 2 -29
14 -35 20 -22 23 9 3 17 9 17 14 0 5 11 9 24 9 14 0 41 9 61 21 29 17 34 18
29 5 -3 -9 -1 -16 5 -16 6 0 11 5 11 11 0 11 30 9 75 -6 14 -5 16 -4 7 2 -8 7
-1 9 23 9 19 -1 35 -4 35 -8 0 -4 15 1 33 11 17 11 37 18 42 15 6 -2 18 -7 28
-10z m-5742 -290 c24 -23 26 -29 16 -51 -14 -31 -11 -32 112 -75 63 -22 96
-39 99 -50 2 -10 11 -18 18 -18 8 0 14 -7 14 -15 0 -9 6 -18 13 -21 13 -5 19
-28 20 -80 0 -22 5 -30 14 -27 16 6 16 6 -3 -73 -14 -53 -22 -68 -45 -79 -36
-19 -53 -19 -91 1 -26 14 -38 14 -71 4 -56 -16 -91 2 -83 42 3 15 1 28 -4 28
-6 0 -10 9 -10 19 0 11 -5 23 -11 26 -6 4 -8 13 -5 21 3 8 1 14 -4 14 -6 0
-10 7 -10 16 0 8 -4 12 -10 9 -6 -4 -10 8 -10 30 0 22 -4 34 -10 30 -5 -3 -10
0 -10 8 0 8 -7 20 -15 27 -8 7 -15 19 -15 27 0 7 -5 19 -10 26 -40 48 -50 61
-50 72 0 7 -9 20 -20 30 -27 25 -25 32 12 51 80 41 132 44 169 8z m5002 -39
c19 -17 27 -33 27 -58 0 -34 1 -35 78 -62 124 -45 127 -47 142 -108 7 -30 9
-60 5 -67 -5 -9 -4 -11 3 -6 11 7 21 -21 20 -54 0 -8 3 -37 6 -64 11 -83 -27
-116 -94 -81 -23 12 -39 13 -72 5 -65 -15 -87 -12 -113 14 -17 17 -22 31 -18
46 4 15 2 21 -4 17 -12 -7 -27 20 -24 41 1 6 -4 12 -11 12 -9 0 -9 3 2 10 10
6 11 10 3 10 -7 0 -13 6 -13 14 0 8 -7 17 -16 20 -8 3 -12 11 -8 17 4 7 -1 18
-11 26 -14 9 -15 13 -4 13 12 0 12 2 0 9 -8 5 -12 18 -8 30 4 16 1 21 -14 21
-18 0 -24 15 -20 48 1 6 -5 12 -14 12 -13 0 -19 12 -16 33 0 4 -6 7 -14 7 -8
0 -15 4 -15 9 0 5 -3 16 -6 24 -8 23 107 81 171 86 6 0 22 -11 38 -24z m-8363
-95 c0 -5 -5 -10 -11 -10 -5 0 -7 5 -4 10 3 6 8 10 11 10 2 0 4 -4 4 -10z
m4300 -10 c0 -5 -2 -10 -4 -10 -3 0 -8 5 -11 10 -3 6 -1 10 4 10 6 0 11 -4 11
-10z m-290 -104 c0 -3 -4 -8 -10 -11 -5 -3 -10 -1 -10 4 0 6 5 11 10 11 6 0
10 -2 10 -4z m1134 -198 c-6 -10 -4 -10 7 0 14 13 53 17 47 5 -28 -59 -44 -83
-55 -83 -15 0 -15 2 -7 24 3 9 14 16 23 17 11 0 9 3 -6 9 -23 9 -29 21 -16 33
11 11 15 8 7 -5z m-1460 -100 c-2 -35 -5 -90 -9 -123 -3 -33 -6 -70 -6 -82 1
-25 -11 -28 -55 -14 -16 5 -62 19 -102 31 -62 18 -73 25 -69 41 3 10 1 19 -5
21 -5 2 -10 20 -11 39 -2 20 -7 43 -12 50 -6 8 -10 28 -10 44 0 28 4 31 46 39
36 7 56 5 87 -7 37 -15 43 -15 88 3 27 11 52 19 55 20 3 0 4 -28 3 -62z m4935
-22 l28 6 1 -127 0 -127 -29 6 c-40 8 -37 -7 4 -22 32 -12 33 -14 28 -54 -5
-34 -13 -47 -41 -66 -19 -13 -54 -40 -78 -60 -24 -20 -50 -37 -58 -36 -71 4
-67 1 -61 43 2 22 0 44 -5 49 -6 6 -7 16 -2 23 11 18 13 49 3 55 -5 2 -3 16 3
30 9 20 9 27 -1 34 -8 4 -10 13 -7 19 8 13 88 15 102 2 12 -11 82 -26 71 -15
-11 12 -118 44 -147 44 -19 0 -26 6 -27 20 -1 11 4 20 10 20 7 0 4 5 -6 11
-13 8 -17 18 -13 35 4 14 2 24 -4 24 -5 0 -10 5 -10 11 0 5 5 7 10 4 6 -3 10
-1 10 4 0 6 -6 11 -14 11 -9 0 -14 12 -14 35 0 31 3 34 22 30 11 -3 41 1 66 8
40 12 50 12 88 -4 25 -11 54 -16 71 -13z m-3469 -16 c0 -5 -5 -10 -11 -10 -5
0 -7 5 -4 10 3 6 8 10 11 10 2 0 4 -4 4 -10z m10 -74 c0 -3 -4 -8 -10 -11 -5
-3 -10 -1 -10 4 0 6 5 11 10 11 6 0 10 -2 10 -4z m-1623 -97 c96 -29 98 -31
98 -75 0 -35 -4 -42 -49 -71 -27 -17 -63 -46 -81 -63 -21 -20 -37 -28 -48 -24
-19 7 -22 20 -8 28 7 5 8 103 0 131 -1 6 2 19 6 29 6 13 4 21 -3 24 -17 5 -15
42 3 42 8 0 45 -9 82 -21z m87 -181 c-9 -24 -18 -60 -20 -81 -2 -21 -8 -45
-13 -54 -8 -14 -9 -14 -15 4 -4 11 -22 29 -41 39 -19 10 -35 21 -35 24 0 15
115 106 137 110 1 0 -5 -19 -13 -42z m5017 -117 c-6 -27 -8 -59 -6 -73 3 -13
-1 -33 -8 -42 -12 -17 -15 -14 -31 28 -13 34 -27 51 -53 64 l-35 18 48 43 c65
58 88 66 92 34 2 -13 -1 -46 -7 -72z m-5113 13 c20 -13 27 -33 24 -74 0 -8 5
-18 11 -22 9 -6 9 -8 -1 -8 -7 0 -11 -4 -8 -8 7 -11 -10 -79 -35 -147 l-21
-57 -47 7 c-25 4 -48 9 -50 11 -2 2 1 15 7 29 8 18 8 25 1 25 -8 0 -8 4 0 14
8 10 9 16 1 21 -14 9 -13 26 3 23 7 -2 12 7 11 20 0 12 3 22 8 22 4 0 8 5 8
11 0 5 -4 7 -10 4 -5 -3 -10 3 -10 14 0 15 4 19 18 14 15 -6 15 -5 3 11 -12
14 -12 19 -2 25 7 5 12 11 12 15 -1 3 -1 22 -1 42 0 34 1 36 28 29 15 -3 37
-13 50 -21z m1687 -4 c3 -5 1 -10 -4 -10 -6 0 -11 5 -11 10 0 6 2 10 4 10 3 0
8 -4 11 -10z m3338 -58 c9 -8 17 -25 17 -37 0 -12 12 -35 27 -50 22 -21 27
-36 27 -68 -1 -35 -9 -82 -14 -82 0 0 -2 -22 -4 -48 -2 -27 -6 -51 -9 -54 -3
-3 -37 4 -74 15 -89 26 -133 34 -133 23 0 -5 19 -12 43 -16 49 -7 167 -44 167
-52 0 -16 -33 -130 -41 -139 -5 -6 -7 -13 -4 -16 7 -6 -24 -108 -33 -108 -4 0
-8 -11 -8 -24 -1 -14 -9 -39 -18 -57 -9 -18 -16 -38 -16 -44 0 -7 -10 -15 -22
-19 -17 -4 -31 3 -53 24 -31 30 -95 43 -95 20 0 -5 14 -10 32 -10 23 0 38 -8
53 -25 11 -14 30 -27 43 -28 12 -1 21 -4 20 -7 -26 -52 -56 -90 -73 -90 -15 0
-17 -2 -6 -9 11 -7 11 -13 0 -32 -22 -42 -61 -89 -74 -89 -7 0 -16 -11 -19
-25 -4 -14 -18 -31 -31 -37 -21 -9 -28 -8 -45 7 -12 11 -18 26 -15 37 3 10 7
26 10 36 7 26 -36 67 -108 103 -32 17 -55 34 -52 38 3 5 0 11 -6 13 -13 4 17
58 32 58 5 0 6 7 3 15 -4 10 0 15 10 15 9 0 24 13 34 28 20 33 68 92 75 92 3
0 17 -20 31 -44 25 -42 48 -61 60 -49 10 11 7 23 -6 21 -6 -2 -21 15 -34 37
-12 22 -28 46 -34 53 -8 9 -6 19 9 39 12 14 21 34 21 43 0 10 7 23 15 30 8 7
13 16 10 20 -3 5 -1 11 4 14 5 4 8 13 7 22 -1 9 11 30 27 47 23 25 27 37 22
63 -5 30 -3 33 25 39 27 6 29 9 15 19 -12 9 -14 17 -6 41 6 17 13 46 15 65 9
72 19 115 29 128 6 8 6 12 -2 12 -8 0 -9 5 -1 19 5 11 10 29 10 40 0 10 6 21
13 24 18 6 109 -22 130 -41z m-8393 -192 c-20 -13 -33 -13 -25 0 3 6 14 10 23
10 15 0 15 -2 2 -10z m5127 4 c-3 -3 -12 -4 -19 -1 -8 3 -5 6 6 6 11 1 17 -2
13 -5z m-4930 -63 c51 10 62 10 91 -5 18 -9 41 -15 51 -11 14 4 22 -8 42 -62
13 -38 24 -73 24 -79 0 -6 6 -18 13 -26 6 -8 23 -35 36 -60 25 -47 21 -68 -14
-68 -9 0 -45 -11 -81 -25 -49 -20 -79 -25 -129 -23 -39 1 -75 -3 -89 -11 -21
-12 -23 -11 -17 4 3 9 3 22 -1 28 -4 7 -9 21 -10 31 -2 11 -10 27 -17 35 -18
21 -76 264 -76 317 0 8 23 -1 59 -22 59 -35 59 -35 118 -23z m3113 -28 c11
-12 12 -17 2 -20 -6 -3 -10 -9 -6 -14 8 -14 -90 -212 -121 -243 -14 -14 -24
-29 -24 -33 4 -14 -13 -43 -21 -38 -5 3 -11 -4 -15 -15 -7 -23 -16 -25 -33 -8
-18 18 -15 66 6 96 18 28 33 57 74 149 13 29 30 53 38 53 12 0 12 2 2 9 -11 6
-10 16 3 49 16 38 19 41 48 35 18 -3 39 -12 47 -20z m-3290 -23 c0 -5 -4 -10
-10 -10 -5 0 -10 5 -10 10 0 6 5 10 10 10 6 0 10 -4 10 -10z m5343 -184 c41
-19 79 -69 75 -99 -2 -12 -18 -24 -42 -32 -42 -15 -56 -12 -56 10 0 7 -11 26
-23 42 -13 15 -27 40 -30 55 -4 14 -18 40 -32 56 -14 17 -25 37 -25 47 0 12
12 6 48 -23 26 -21 64 -47 85 -56z m-233 54 c0 -5 -4 -10 -10 -10 -5 0 -10 5
-10 10 0 6 5 10 10 10 6 0 10 -4 10 -10z m-4625 -150 c4 -11 32 -55 64 -98 55
-73 75 -96 144 -169 l30 -33 -37 -15 c-34 -14 -41 -14 -85 2 -43 15 -54 15
-90 3 -45 -14 -54 -12 -143 41 l-36 22 -32 -26 c-17 -15 -36 -27 -42 -27 -29
0 -129 167 -105 175 6 2 28 8 47 13 l35 10 -42 7 c-50 9 -75 31 -52 46 8 5 41
9 74 8 67 -2 88 2 172 37 71 29 90 30 98 4z m5019 -112 c35 -51 90 -119 121
-151 67 -70 69 -92 11 -115 -38 -15 -40 -15 -55 8 -9 13 -33 40 -53 60 -21 21
-38 41 -38 45 0 7 -46 64 -134 169 l-25 30 52 22 c29 12 53 22 54 23 1 0 31
-41 67 -91z m-2431 19 c17 -6 17 -8 3 -22 -8 -9 -30 -36 -47 -60 -18 -24 -36
-42 -42 -38 -6 3 -7 2 -4 -4 4 -6 -4 -20 -17 -32 -19 -18 -28 -21 -44 -12 -19
10 -37 51 -23 51 15 0 57 46 53 58 -2 7 2 12 10 12 7 1 26 19 42 42 24 35 30
39 40 27 6 -8 19 -18 29 -22z m-2928 -15 c-3 -3 -11 0 -18 7 -9 10 -8 11 6 5
10 -3 15 -9 12 -12z m2735 -152 c0 -5 5 -9 11 -7 6 1 16 -6 22 -16 10 -14 9
-20 -3 -27 -8 -5 -42 -35 -75 -66 -173 -164 -202 -186 -294 -229 -19 -9 -40
-23 -48 -30 -8 -8 -32 -19 -53 -25 -22 -6 -40 -15 -40 -19 0 -16 -43 -20 -81
-7 -29 10 -51 11 -85 4 -48 -10 -61 -7 -49 12 4 6 17 9 29 6 13 -3 31 1 42 9
10 8 37 15 59 15 27 0 35 3 26 9 -11 7 -10 11 7 20 11 6 32 11 46 11 14 0 26
4 26 10 0 5 11 12 25 16 14 3 25 10 25 15 0 5 11 9 24 9 13 0 26 3 28 8 6 13
78 63 113 78 19 8 35 21 35 30 0 11 6 15 20 11 10 -3 19 -2 18 2 -2 20 4 31
18 31 14 0 71 56 124 121 17 21 30 25 30 9z m-2505 -30 c20 -11 47 -27 60 -36
21 -14 30 -14 72 -2 40 12 55 12 83 2 48 -17 74 -17 113 2 33 16 36 15 53 -2
17 -17 95 -81 132 -109 7 -5 22 -18 33 -27 10 -10 26 -18 34 -18 8 0 20 -9 27
-20 7 -11 21 -20 31 -20 10 0 20 -7 23 -15 4 -8 12 -15 20 -15 27 0 94 -35 94
-49 0 -9 7 -11 21 -8 13 3 19 1 16 -6 -4 -14 -147 -73 -199 -82 -48 -8 -76
-38 -58 -61 12 -13 11 -17 -1 -25 -18 -11 -29 -11 -29 1 0 5 -7 7 -15 4 -20
-8 -77 15 -69 28 3 5 -5 6 -18 3 -32 -8 -123 29 -122 49 1 9 -5 16 -13 16 -9
0 -11 -5 -7 -12 5 -8 0 -7 -13 2 -11 8 -43 31 -69 50 -27 19 -54 39 -60 45 -7
5 -40 37 -75 71 -35 34 -75 67 -87 73 -13 7 -22 15 -19 17 2 3 -13 23 -34 46
-44 49 -55 78 -30 78 10 0 26 9 37 19 24 25 26 25 69 1z m7517 -30 c32 -17 69
-41 84 -55 23 -21 26 -30 20 -64 -5 -33 -2 -44 18 -68 l24 -29 -58 -47 c-32
-26 -78 -56 -103 -67 -24 -11 -50 -27 -57 -35 -7 -8 -19 -15 -26 -15 -8 0 -14
-5 -14 -11 0 -6 -7 -9 -15 -6 -8 4 -17 2 -20 -2 -8 -13 -92 -51 -113 -51 -11
0 -32 -7 -48 -15 -17 -8 -51 -16 -76 -18 -25 -2 -51 -7 -57 -11 -11 -7 -156
58 -166 75 -3 4 -26 1 -52 -7 -39 -12 -58 -12 -100 -3 -49 11 -73 29 -39 29 8
0 16 5 18 12 2 6 21 11 41 10 20 -1 39 3 42 8 3 6 22 10 41 10 23 0 33 4 28
11 -8 14 14 29 44 29 12 0 40 11 62 25 22 14 49 25 60 25 11 0 20 4 20 9 0 5
8 12 18 15 10 4 28 15 39 26 12 10 37 26 57 34 20 8 36 22 36 30 0 19 16 21
24 4 5 -10 7 -10 12 0 3 7 29 34 57 60 28 26 63 60 79 76 17 17 28 23 29 15 0
-8 5 -4 11 9 6 12 14 22 17 22 3 0 32 -14 63 -30z m-2052 -136 c30 -22 81 -55
113 -73 31 -18 57 -37 57 -42 0 -5 11 -9 24 -9 13 0 34 -9 48 -19 13 -11 37
-23 51 -26 35 -9 41 -19 27 -45 -17 -33 -57 -43 -112 -30 -26 7 -46 16 -43 20
3 5 -9 11 -27 15 -32 7 -154 73 -180 98 -7 7 -26 21 -42 31 -36 23 -136 117
-136 128 0 5 18 15 40 24 22 9 40 23 40 31 0 10 15 2 43 -24 23 -21 67 -57 97
-79z m-4511 -203 c5 -8 13 -11 19 -7 5 3 13 -2 16 -11 6 -14 9 -15 15 -4 10
16 31 6 31 -15 0 -11 4 -12 18 -3 12 8 36 9 65 5 47 -7 62 -22 30 -28 -12 -2
-14 -6 -6 -11 6 -4 18 0 26 8 9 8 26 15 39 15 18 0 20 -2 8 -10 -11 -7 -5 -8
20 -5 20 2 37 -1 42 -8 5 -9 10 -9 20 1 18 18 38 15 38 -5 0 -13 2 -15 8 -5 6
9 27 12 70 9 42 -3 59 -1 56 7 -2 6 7 12 22 12 18 2 24 -2 20 -12 -8 -20 51
-19 70 1 11 10 28 14 56 10 23 -3 47 0 54 6 9 7 38 10 76 6 35 -2 82 0 106 6
36 10 45 9 59 -6 10 -9 13 -18 8 -18 -6 -1 -23 -3 -39 -5 -15 -1 -36 -9 -45
-17 -21 -18 -106 -41 -121 -32 -6 4 -18 1 -26 -6 -8 -6 -24 -13 -37 -15 -12
-1 -42 -7 -66 -12 -25 -6 -49 -8 -53 -6 -5 3 -15 1 -22 -5 -13 -11 -40 -14
-250 -27 -93 -5 -117 -4 -111 6 6 9 3 9 -13 1 -26 -14 -390 -10 -400 5 -4 5
-35 11 -70 12 -35 1 -71 6 -80 11 -9 4 -24 6 -32 3 -11 -4 -10 1 4 17 11 11
16 24 13 28 -4 3 -1 13 6 22 11 14 10 14 -6 2 -9 -8 -21 -11 -25 -7 -11 12 26
34 69 41 21 4 69 20 106 36 58 25 79 29 136 26 43 -2 71 -8 76 -16z m4911 -10
c0 -5 8 -12 18 -14 9 -3 -5 -5 -32 -6 -46 -1 -48 0 -30 14 22 16 44 19 44 6z
m115 -39 c5 -3 20 -7 33 -8 14 -2 32 -6 41 -10 9 -4 49 -8 88 -9 40 -1 78 -6
85 -11 15 -11 65 -10 91 1 12 5 17 3 17 -9 0 -18 31 -21 47 -5 7 7 35 10 72 7
34 -2 61 -1 61 3 0 4 16 5 35 2 24 -4 35 -2 35 7 0 7 7 10 15 7 8 -4 17 -2 19
2 3 4 29 0 58 -10 29 -10 64 -19 78 -19 14 0 31 -4 39 -9 7 -5 31 -3 57 5 44
13 94 4 94 -18 0 -4 6 -8 14 -8 8 0 24 -8 36 -18 22 -18 21 -18 -81 -30 -57
-7 -133 -12 -169 -12 -36 1 -107 1 -158 0 -51 0 -96 2 -101 4 -4 3 -27 0 -50
-6 -30 -8 -45 -8 -50 0 -3 5 -53 13 -111 16 -129 6 -223 17 -230 25 -3 3 -23
8 -45 10 -22 1 -42 6 -45 10 -3 3 -14 7 -25 8 -27 2 -63 10 -75 18 -5 3 -19 8
-31 10 -12 2 -34 10 -50 17 -28 12 -28 13 -7 24 21 12 194 16 213 6z m-4420
-12 c3 -5 -1 -10 -9 -10 -9 0 -16 5 -16 10 0 6 4 10 9 10 6 0 13 -4 16 -10z
m-335 -300 c0 -5 -2 -10 -4 -10 -3 0 -8 5 -11 10 -3 6 -1 10 4 10 6 0 11 -4
11 -10z m147 -12 c-3 -8 -6 -5 -6 6 -1 11 2 17 5 13 3 -3 4 -12 1 -19z m5603
13 c0 -6 -4 -13 -10 -16 -5 -3 -10 1 -10 9 0 9 5 16 10 16 6 0 10 -4 10 -9z
m-425 -11 c3 -5 1 -10 -4 -10 -6 0 -11 5 -11 10 0 6 2 10 4 10 3 0 8 -4 11
-10z m125 -6 c0 -8 -4 -12 -10 -9 -5 3 -10 10 -10 16 0 5 5 9 10 9 6 0 10 -7
10 -16z m77 -6 c-3 -8 -6 -5 -6 6 -1 11 2 17 5 13 3 -3 4 -12 1 -19z m158 12
c3 -5 1 -10 -4 -10 -6 0 -11 5 -11 10 0 6 2 10 4 10 3 0 8 -4 11 -10z m-285
-4 c0 -3 -4 -8 -10 -11 -5 -3 -10 -1 -10 4 0 6 5 11 10 11 6 0 10 -2 10 -4z"/>
<path d="M1116 2921 c5 -5 35 -16 67 -26 31 -10 69 -28 83 -41 27 -25 77 -32
104 -13 11 7 4 9 -29 7 -31 -2 -46 2 -56 15 -7 10 -45 28 -85 42 -78 27 -100
31 -84 16z"/>
<path d="M890 2650 c0 -8 9 -30 20 -48 18 -30 23 -32 59 -26 35 6 47 2 102
-35 34 -22 69 -41 78 -41 14 0 14 2 1 11 -8 5 -32 19 -52 30 -21 10 -38 26
-38 33 0 20 -17 24 -77 18 -41 -4 -53 -2 -53 9 -1 20 -40 68 -40 49z"/>
<path d="M914 2491 c-18 -17 -43 -33 -58 -37 -33 -8 -48 -27 -44 -56 2 -15 11
-24 26 -26 12 -2 22 -7 22 -12 0 -13 -47 -81 -68 -96 -9 -7 -12 -14 -7 -14 21
0 55 32 81 76 29 49 24 64 -22 64 -34 0 -24 31 15 49 20 9 51 26 69 39 25 18
39 22 65 17 21 -5 29 -4 22 3 -5 5 -23 13 -40 16 -24 5 -36 1 -61 -23z"/>
<path d="M782 2213 c4 -16 2 -23 -8 -23 -8 0 -14 -4 -14 -9 0 -19 18 -20 40
-3 l22 17 -23 20 -22 20 5 -22z"/>
<path d="M876 1820 c5 -4 38 -10 74 -14 37 -3 60 -2 55 3 -6 5 -39 11 -74 14
-35 3 -59 2 -55 -3z"/>
<path d="M6105 2861 c3 -5 20 -13 38 -16 17 -4 48 -20 68 -36 30 -24 41 -27
65 -19 l29 8 -32 1 c-19 1 -37 9 -45 19 -7 10 -35 26 -62 35 -56 19 -70 21
-61 8z"/>
<path d="M5837 2588 c-2 -7 4 -25 14 -40 17 -24 24 -26 68 -21 41 4 53 1 70
-16 23 -23 101 -65 108 -58 2 3 -16 17 -41 32 -26 15 -53 36 -61 47 -12 18
-21 20 -60 15 -46 -7 -75 6 -75 32 0 16 -18 23 -23 9z"/>
<path d="M5850 2440 c-19 -17 -39 -30 -46 -30 -6 0 -17 -7 -24 -15 -21 -25 50
3 82 33 22 20 33 23 62 18 23 -4 36 -3 36 4 0 5 -8 10 -17 10 -10 0 -27 2 -38
5 -13 3 -33 -6 -55 -25z"/>
<path d="M9120 2529 c0 -5 5 -7 10 -4 6 3 10 8 10 11 0 2 -4 4 -10 4 -5 0 -10
-5 -10 -11z"/>
<path d="M1046 1315 c4 -8 10 -15 16 -15 5 0 21 -11 36 -25 44 -41 50 -28 7
15 -41 40 -69 52 -59 25z"/>
<path d="M6507 4218 c-12 -9 -31 -85 -67 -263 -50 -245 -115 -534 -122 -541
-2 -1 -14 27 -27 64 -38 108 -174 477 -178 481 -4 6 -43 -30 -43 -41 0 -5 33
-93 74 -196 41 -103 91 -235 113 -294 36 -103 63 -138 63 -83 0 14 8 42 19 63
16 32 108 429 156 672 9 47 23 95 31 107 25 39 15 56 -19 31z"/>
<path d="M9053 4130 c-40 -16 -63 -68 -63 -141 0 -121 38 -185 174 -293 99
-79 152 -134 167 -173 10 -28 12 -93 3 -118 -17 -43 -130 -60 -202 -30 -78 33
-140 120 -133 188 1 15 -2 27 -7 27 -6 0 -18 3 -28 7 -16 6 -16 1 -10 -53 9
-80 39 -138 94 -179 78 -61 151 -68 246 -27 39 18 50 29 68 69 48 107 11 175
-181 336 -82 69 -141 144 -141 179 0 10 -4 18 -10 18 -5 0 -10 23 -10 51 0 43
5 55 29 80 29 28 71 39 71 18 0 -5 16 -17 36 -25 86 -36 169 -146 182 -241 8
-54 27 -67 35 -23 20 96 -121 287 -242 328 -39 14 -48 14 -78 2z"/>
<path d="M2860 70 c0 -5 5 -10 11 -10 5 0 7 5 4 10 -3 6 -8 10 -11 10 -2 0 -4
-4 -4 -10z"/>
</g>
</svg>
